<mxfile host="app.diagrams.net" agent="Mozilla/5.0 (Macintosh; Intel Mac OS X 10_15_7) AppleWebKit/537.36 (KHTML, like Gecko) Chrome/131.0.0.0 Safari/537.36" version="25.0.3">
  <diagram name="Page-1" id="58cdce13-f638-feb5-8d6f-7d28b1aa9fa0">
    <mxGraphModel dx="1060" dy="672" grid="1" gridSize="10" guides="1" tooltips="1" connect="1" arrows="1" fold="1" page="1" pageScale="1" pageWidth="1100" pageHeight="850" background="none" math="0" shadow="0">
      <root>
        <mxCell id="0" />
        <mxCell id="1" parent="0" />
        <mxCell id="sHuxoUW7x8RaEsNGfIfM-1" value="START" style="shape=umlActor;verticalLabelPosition=bottom;verticalAlign=top;html=1;outlineConnect=0;" vertex="1" parent="1">
          <mxGeometry x="50" y="65" width="30" height="60" as="geometry" />
        </mxCell>
        <mxCell id="sHuxoUW7x8RaEsNGfIfM-5" value="" style="shape=line;html=1;strokeWidth=6;strokeColor=#000000;" vertex="1" parent="1">
          <mxGeometry x="100" y="90" width="800" height="10" as="geometry" />
        </mxCell>
        <mxCell id="sHuxoUW7x8RaEsNGfIfM-8" value="" style="edgeStyle=orthogonalEdgeStyle;html=1;verticalAlign=bottom;endArrow=open;endSize=8;strokeColor=#000000;rounded=0;" edge="1" parent="1">
          <mxGeometry relative="1" as="geometry">
            <mxPoint x="840" y="170" as="targetPoint" />
            <mxPoint x="840" y="100" as="sourcePoint" />
          </mxGeometry>
        </mxCell>
        <mxCell id="sHuxoUW7x8RaEsNGfIfM-10" value="" style="edgeStyle=orthogonalEdgeStyle;html=1;verticalAlign=bottom;endArrow=open;endSize=8;strokeColor=#000000;rounded=0;" edge="1" parent="1">
          <mxGeometry relative="1" as="geometry">
            <mxPoint x="520" y="170" as="targetPoint" />
            <mxPoint x="520" y="100" as="sourcePoint" />
          </mxGeometry>
        </mxCell>
        <mxCell id="sHuxoUW7x8RaEsNGfIfM-12" value="" style="edgeStyle=orthogonalEdgeStyle;html=1;verticalAlign=bottom;endArrow=open;endSize=8;strokeColor=#000000;rounded=0;" edge="1" parent="1">
          <mxGeometry relative="1" as="geometry">
            <mxPoint x="680" y="170" as="targetPoint" />
            <mxPoint x="680" y="100" as="sourcePoint" />
            <Array as="points">
              <mxPoint x="680" y="130" />
              <mxPoint x="680" y="130" />
            </Array>
          </mxGeometry>
        </mxCell>
        <mxCell id="sHuxoUW7x8RaEsNGfIfM-14" value="" style="edgeStyle=orthogonalEdgeStyle;html=1;verticalAlign=bottom;endArrow=open;endSize=8;strokeColor=#000000;rounded=0;" edge="1" parent="1">
          <mxGeometry relative="1" as="geometry">
            <mxPoint x="360" y="170" as="targetPoint" />
            <mxPoint x="360" y="100" as="sourcePoint" />
            <Array as="points">
              <mxPoint x="360" y="130" />
              <mxPoint x="360" y="130" />
            </Array>
          </mxGeometry>
        </mxCell>
        <mxCell id="sHuxoUW7x8RaEsNGfIfM-15" value="LibraryItem" style="html=1;whiteSpace=wrap;" vertex="1" parent="1">
          <mxGeometry x="310" y="190" width="110" height="50" as="geometry" />
        </mxCell>
        <mxCell id="sHuxoUW7x8RaEsNGfIfM-16" value="Book" style="html=1;whiteSpace=wrap;" vertex="1" parent="1">
          <mxGeometry x="640" y="190" width="110" height="50" as="geometry" />
        </mxCell>
        <mxCell id="sHuxoUW7x8RaEsNGfIfM-17" value="Member" style="html=1;whiteSpace=wrap;" vertex="1" parent="1">
          <mxGeometry x="780" y="190" width="110" height="50" as="geometry" />
        </mxCell>
        <mxCell id="sHuxoUW7x8RaEsNGfIfM-18" value="LibrarySystem" style="html=1;whiteSpace=wrap;" vertex="1" parent="1">
          <mxGeometry x="470" y="190" width="110" height="50" as="geometry" />
        </mxCell>
        <mxCell id="sHuxoUW7x8RaEsNGfIfM-20" value="" style="edgeStyle=orthogonalEdgeStyle;html=1;verticalAlign=bottom;endArrow=open;endSize=8;strokeColor=#000000;rounded=0;" edge="1" parent="1">
          <mxGeometry relative="1" as="geometry">
            <mxPoint x="200" y="170" as="targetPoint" />
            <mxPoint x="200" y="100" as="sourcePoint" />
            <Array as="points">
              <mxPoint x="200" y="130" />
              <mxPoint x="200" y="130" />
            </Array>
          </mxGeometry>
        </mxCell>
        <mxCell id="sHuxoUW7x8RaEsNGfIfM-21" value="Main" style="html=1;whiteSpace=wrap;" vertex="1" parent="1">
          <mxGeometry x="140" y="190" width="110" height="50" as="geometry" />
        </mxCell>
      </root>
    </mxGraphModel>
  </diagram>
</mxfile>
